# xmcd
#
# Track frame offsets:
#	150
#	24154
#	42585
#	59991
#	84627
#	97259
#	119775
#	128902
#	141848
#	155781
#	171345
#	188918
#	200581
#	213041
# Disc length: 3018 seconds
# Revision: 1
# Processed by: cddbd v1.5.1PL0 Copyright (c) Steve Scherf et al.
#
# Submitted via: libkcddb 0.21
#
DISCID=dd0bc80e
DTITLE=Alexander Blume - blue(s)
DYEAR=2004
DGENRE=Blues
TTITLE0=back to the city
TTITLE1=once bitten, twice shy
TTITLE2=chicago breakdown
TTITLE3=send me someone to love
TTITLE4=going to duke's place
TTITLE5=basin street blues
TTITLE6=numbers boogie
TTITLE7=hymn to freedom
TTITLE8=please don't talk about me when I'm gone
TTITLE9=knocking at your window
TTITLE10=don't forget me
TTITLE11=you're in love charlie brown
TTITLE12=love will come
TTITLE13=christmas time here
EXTD=
EXTT0=
EXTT1=
EXTT2=
EXTT3=
EXTT4=
EXTT5=
EXTT6=
EXTT7=
EXTT8=
EXTT9=
EXTT10=
EXTT11=
EXTT12=
EXTT13=
PLAYORDER=
